<!DOCTYPE svg PUBLIC "-//W3C//DTD SVG 1.1//EN" "http://www.w3.org/Graphics/SVG/1.1/DTD/svg11.dtd">
<!-- Uploaded to: SVG Repo, www.svgrepo.com, Transformed by: SVG Repo Mixer Tools -->
<svg width="800px" height="800px" viewBox="-45.97 0 327.257 327.257" xmlns="http://www.w3.org/2000/svg" fill="#000000">
<g id="SVGRepo_bgCarrier" stroke-width="0"/>
<g id="SVGRepo_tracerCarrier" stroke-linecap="round" stroke-linejoin="round"/>
<g id="SVGRepo_iconCarrier">
<defs>
<style>.a{fill:#ffffff;}.b{fill:#8ec0e6;}.c{fill:#85807f;}.d{fill:#211715;}.e{fill:#f9c167;}.f{fill:#febe69;}</style>
</defs>
<path class="a" d="M166.1,82.95a7.606,7.606,0,0,1,5.5-2.013,7.06,7.06,0,0,1,6.342,3.523c2.154,3.736,2.063,10.622.617,14.882-1.024,3.017-2.7,7.633-6.747,10.943a8.387,8.387,0,0,1-6.466,1.866l-.62-.1a49.35,49.35,0,0,1-2.224,6.038c-1.743,4.73-11.848,22.031-24.321,27.2,0,.882,0,1.722,0,1.722,0,.853,0,3.241,0,5.176-5.923,4.674-17.643,13.893-18.781,14.7h-3.466c-1.116-.792-12.419-9.681-18.44-14.429,0-2,0-4.558,0-6.938-6.058-2.41-11.394-6.725-16.445-12.771a57.835,57.835,0,0,1-10.977-20.711,8.225,8.225,0,0,1-7-1.751c-4.045-3.31-5.723-7.926-6.747-10.943-1.446-4.26-1.537-11.146.617-14.882a7.061,7.061,0,0,1,6.342-3.523,7.606,7.606,0,0,1,5.5,2.013s-9.635-46.484,48.661-46.484C177,36.466,166.1,82.95,166.1,82.95Z"/>
<path class="b" d="M116.559,266.842c-6.835-16.867-8.595-22.435-13.938-38.844-7.211-22.146-13.913-46.5-19.042-69.279-2.3,1.475-5.2,3.508-8.133,5.821l-2.249.884-7.526,2.955c-18.241,7.658-35.406,15.607-43.8,28.388-5.987,9.1-11.167,29.273-12.837,45.025C6.407,266.4,5.981,276.065,2.4,324.857H232.917c-3.576-48.792-4-58.456-6.625-83.065-1.671-15.752-6.851-35.922-12.838-45.025-8.4-12.781-25.562-20.73-43.8-28.388l-7.526-2.955-2.249-.884c-2.934-2.313-5.831-4.346-8.133-5.821C146.614,181.5,139.913,205.852,132.7,228c-5.343,16.409-7.1,21.977-13.937,38.844"/>
<path class="c" d="M55.669,51.1c-.145,1.207-.255,2.3-.327,3.192-.888,10.857,1.589,19.511,4.936,27.243a8.78,8.78,0,0,1,3-.6,7.606,7.606,0,0,1,5.5,2.013l2.391,2.3.092-1.009A80.7,80.7,0,0,1,72.9,73.084c.858-4.069,1.943-8.285,5.626-11.663l7.975-5.6c2.118-.121,4.6-.442,6.28-.386,15.2.5,30.669-2.377,42.434-7.9l9.359,5.451A63.219,63.219,0,0,1,159.161,71.3c1.2,2.252,3.942,9.9,5.908,12.935a7.327,7.327,0,0,1,6.53-3.3,8.682,8.682,0,0,1,3.124.648c3.822-20.008,4.624-32.109-3.11-47.7a46.477,46.477,0,0,0-5.717-8.433,37.718,37.718,0,0,0-14.367-9.879l-10.535-4.584C130.448.7,111.381.7,98.253,5.558,85.942,10.112,79.288,16.54,71.3,22.546a25.86,25.86,0,0,1-9.611,4.85l-3,10.67C57.235,40.635,56.207,46.626,55.669,51.1Z"/>
<path class="d" d="M108.445,123.98a19.743,19.743,0,0,0,9.509,2.2,15.458,15.458,0,0,0,9.58-2.818,2.414,2.414,0,0,0,0-3.394,2.462,2.462,0,0,0-3.4,0c.724-.564.145-.12-.041,0s-.389.236-.591.342c-.161.084-.88.373-.236.133-.271.1-.538.207-.814.3a14.123,14.123,0,0,1-2.28.52c.345-.05-.112.009-.238.022-.224.022-.448.041-.672.055-.539.035-1.08.049-1.62.046q-.726,0-1.451-.053c-.221-.015-.443-.033-.664-.055-.011,0-.8-.109-.342-.037a16.292,16.292,0,0,1-2.13-.473c-.3-.089-.589-.2-.883-.3a1.328,1.328,0,0,1-.285-.111c.483.328.253.113.058.021-.366-.172-.725-.351-1.083-.54a2.452,2.452,0,0,0-3.283.861,2.427,2.427,0,0,0,.861,3.284Z"/>
<path class="d" d="M116.771,101.531a44.757,44.757,0,0,1,1.054,4.825l-.085-.638a2.97,2.97,0,0,1,.018.666l.086-.638a1.624,1.624,0,0,1-.074.3l.242-.573a1.157,1.157,0,0,1-.106.192l.376-.485a1.053,1.053,0,0,1-.158.155l.486-.375a3.239,3.239,0,0,1-.382.2l.573-.242a2.782,2.782,0,0,1-.644.188l.638-.086a2.551,2.551,0,0,1-.605,0l.638.086c-.228-.032-.451-.087-.68-.118a2.655,2.655,0,0,0-1.849.242,2.4,2.4,0,0,0-.861,3.284,2.294,2.294,0,0,0,1.434,1.1c.513.069,1.01.2,1.531.223a4.875,4.875,0,0,0,2.247-.533,3.227,3.227,0,0,0,1.794-2.13,5.384,5.384,0,0,0-.023-2.3c-.263-1.554-.622-3.095-1.022-4.62a2.4,2.4,0,0,0-4.628,1.276Z"/>
<path class="d" d="M91.085,87.886c-.806,2.619-.281,8.642,4.68,9.155,6.557-.039,6.906-7.322,4.7-10.746C98.656,83.491,93.343,82.325,91.085,87.886Z"/>
<path class="d" d="M143.793,87.886c.806,2.619.281,8.643-4.68,9.155-6.556-.039-6.906-7.322-4.7-10.747C136.221,83.491,141.535,82.325,143.793,87.886Z"/>
<path class="d" d="M70.475,81.253a10.661,10.661,0,0,0-11.783-1.626,10.346,10.346,0,0,0-5.2,7.162,27.155,27.155,0,0,0,4.042,20.861c2.926,4.363,7.167,7.562,12.637,6.815a2.415,2.415,0,0,0,1.676-2.952,2.465,2.465,0,0,0-2.952-1.677c-3.831.524-6.792-3.58-8.346-6.5a23.5,23.5,0,0,1-2.813-9.22,20.335,20.335,0,0,1,.236-5.375,10.774,10.774,0,0,1,1.363-3.6c-.155.206.33-.364.388-.426a1.9,1.9,0,0,1,.5-.443,5.218,5.218,0,0,1,2.084-.841,5.547,5.547,0,0,1,4.772,1.213c2.286,2.068,5.691-1.317,3.394-3.394Z"/>
<path class="d" d="M167.8,84.647a5.6,5.6,0,0,1,7.809.576c-.327-.414.126.22.178.305a7.005,7.005,0,0,1,.494.949,12.242,12.242,0,0,1,.628,2.263,20.335,20.335,0,0,1,.236,5.375,23.452,23.452,0,0,1-2.731,9.063c-1.551,2.968-4.536,7.19-8.428,6.658a2.484,2.484,0,0,0-2.952,1.677,2.418,2.418,0,0,0,1.676,2.952c8.838,1.207,13.97-7.5,16.262-14.779a25.494,25.494,0,0,0,.689-11.527,11.6,11.6,0,0,0-4.359-7.872,10.563,10.563,0,0,0-12.9.966c-2.3,2.076,1.107,5.463,3.394,3.394Z"/>
<path class="d" d="M163.329,107.836a47.243,47.243,0,0,1-1.812,6.286c-.23.646-.631,1.718-.8,2.121s-.362.8-.527,1.2c-.039.1-.267.681-.107.29.168-.411-.105.234-.14.312q-.135.3-.278.594c-.246.514-.5,1.021-.771,1.525-.6,1.136-1.245,2.251-1.915,3.348A60.548,60.548,0,0,1,143.913,139a24.12,24.12,0,0,1-9.7,5.033c-3.009.694-1.735,5.324,1.276,4.629,7.353-1.7,13.475-7.062,18.282-12.637a66.468,66.468,0,0,0,10.284-15.487c.257-.565.483-1.142.724-1.713-.318.755.41-.935.429-.981q.3-.717.573-1.444a48.317,48.317,0,0,0,2.181-7.292,2.461,2.461,0,0,0-1.677-2.953,2.424,2.424,0,0,0-2.952,1.677Z"/>
<path class="d" d="M66.781,108.939A60.936,60.936,0,0,0,75.408,129.2c4.391,6.589,10.161,12.75,17.139,16.624a33.9,33.9,0,0,0,11.5,3.917A2.479,2.479,0,0,0,107,148.061a2.417,2.417,0,0,0-1.676-2.952c-14.449-2.133-25.254-14.658-30.733-27.5a58.05,58.05,0,0,1-3.178-9.95c-.682-3.012-5.31-1.737-4.628,1.276Z"/>
<path class="d" d="M150.891,17.884A36,36,0,0,1,169.154,34.35a50.5,50.5,0,0,1,5.989,23.512,91.736,91.736,0,0,1-1.306,15.015,2.475,2.475,0,0,0,1.676,2.952,2.418,2.418,0,0,0,2.952-1.676c1.463-9.3,2.246-18.725.161-28-1.985-8.826-6.172-17.75-12.678-24.152a42.1,42.1,0,0,0-13.781-8.751,2.415,2.415,0,0,0-2.952,1.676,2.46,2.46,0,0,0,1.676,2.953Z"/>
<path class="d" d="M142.691,9.288C134.214,1.136,121.533-.938,110.219.355A58.163,58.163,0,0,0,92.481,5.366a80.359,80.359,0,0,0-15.636,9.853c-2.458,1.9-4.863,3.877-7.371,5.714a27.371,27.371,0,0,1-8.42,4.148c-2.945.9-1.689,5.538,1.276,4.629a30.836,30.836,0,0,0,7.847-3.436c2.352-1.527,4.535-3.327,6.737-5.059A102.253,102.253,0,0,1,90.83,11.553c9.857-5.395,21.462-8.081,32.66-6.2,5.827.981,11.5,3.179,15.807,7.324,2.227,2.142,5.626-1.248,3.394-3.394Z"/>
<path class="d" d="M56.621,36.854c-1.553,2.841-2.14,6.231-2.665,9.386A83.236,83.236,0,0,0,52.8,56.622a57.838,57.838,0,0,0,4.611,24.247,2.478,2.478,0,0,0,2.952,1.676,2.414,2.414,0,0,0,1.676-2.952,54.58,54.58,0,0,1-4.455-22.512,71.374,71.374,0,0,1,1-9.564c.455-2.73,1.014-6.106,2.181-8.24,1.482-2.712-2.661-5.137-4.145-2.423Z"/>
<path class="d" d="M134,45.457a83.467,83.467,0,0,1-22.9,6.564,100.077,100.077,0,0,1-12.564,1.041c-2.088.046-4.17-.046-6.256-.036-1.932.01-3.859.272-5.786.392-3.068.19-3.09,4.992,0,4.8,1.983-.123,3.967-.4,5.956-.393,2.107.009,4.208.083,6.317.032a110.383,110.383,0,0,0,13.609-1.207A87.5,87.5,0,0,0,136.426,49.6a2.42,2.42,0,0,0,.861-3.284A2.456,2.456,0,0,0,134,45.457Z"/>
<path class="d" d="M76.828,59.724c-3.447,3.243-5.112,7.527-6.1,12.061a101.952,101.952,0,0,0-1.865,12.453,2.418,2.418,0,0,0,2.4,2.4,2.452,2.452,0,0,0,2.4-2.4,90.265,90.265,0,0,1,1.622-10.846c.831-3.872,1.98-7.49,4.939-10.274,2.254-2.121-1.145-5.511-3.394-3.394Z"/>
<path class="d" d="M142.876,54.677a62.906,62.906,0,0,1,12.2,14.315c2.786,4.547,4.415,9.563,6.747,14.336a2.423,2.423,0,0,0,3.284.861,2.451,2.451,0,0,0,.861-3.284c-2.393-4.9-4.072-10.027-6.96-14.681A67.228,67.228,0,0,0,146.27,51.282c-2.311-2.034-5.718,1.349-3.394,3.4Z"/>
<path class="a" d="M118.764,266.842C125.6,249.975,127.358,244.407,132.7,228c6.621-20.333,12.812-42.528,17.751-63.654a7.249,7.249,0,0,0-1.631-5.974c-2.222-2.574-5.023-6.3-7.294-8.838-.965.781-20.641,16.295-22.133,17.353h-3.466c-1.492-1.058-21.168-16.572-22.133-17.353-2.271,2.541-5.071,6.264-7.293,8.838a7.245,7.245,0,0,0-1.631,5.974C89.809,185.47,96,207.665,102.621,228c5.343,16.409,7.1,21.977,13.938,38.844Z"/>
<path class="e" d="M124.705,251.638c-1.578,4.269-3.412,8.963-5.941,15.2h-2.2c-6.293-15.528-8.283-21.48-12.728-35.129,2.155-18.482,5.006-40.46,5.006-41.108a15.349,15.349,0,0,0-.529-3.453q-.2-.774-.357-1.547c-.569-2.567-.673-3.881-1.335-6.6l-.041-.133c3.174-4.28,7.014-9.356,9.353-11.987h3.466c2.32,2.609,6.114,7.62,9.273,11.877-.18.5-.3.831-.3.831a33.715,33.715,0,0,0-1.622,5.277,21.954,21.954,0,0,0-1.282,6.114c-.019,1.087,2.981,21.928,5.763,41.534C128.714,240.237,126.975,245.5,124.705,251.638Z"/>
<path class="d" d="M51.341,324.858q-.095-17.668-.3-35.335-.228-23.051-.532-46.1c-.091-6.6-.187-13.2-.322-19.8-.063-3.084-4.863-3.095-4.8,0,.269,13.162.417,26.327.571,39.491q.263,22.467.455,44.934.072,8.4.125,16.807c.017,3.088,4.817,3.094,4.8,0Z"/>
<path class="d" d="M101.75,266.358c-12.276-21.28-24.41-42.657-35.731-64.464-.76-1.465-1.614-2.922-2.283-4.43-.283-.637-.284-.515.2-1.062.582-.656,1.2-1.281,1.812-1.91,2.5-2.582,5.112-5.059,7.735-7.519A2.422,2.422,0,0,0,73,183.2l-4.864-2.777L65.809,179.1c-.423-.241-.847-.48-1.269-.724l-.423-.241q-.536-.333.081.071l.328,1.211c-.134.281-.152.322-.055.125.058-.12.119-.238.181-.354.107-.2.22-.4.335-.6.269-.458.559-.9.863-1.34a26.621,26.621,0,0,1,1.918-2.4,60.906,60.906,0,0,1,5.525-5.419,97.147,97.147,0,0,1,11.5-8.639l-3.525-1.435q5.315,23.565,12.106,46.764c4,13.715,8.3,27.373,13.026,40.857,2.419,6.908,5.1,13.719,7.848,20.5a2.476,2.476,0,0,0,2.952,1.677,2.417,2.417,0,0,0,1.676-2.953c-4.752-11.734-8.973-23.6-12.892-35.632-4.964-15.248-9.551-30.6-13.634-46.114q-3.457-13.129-6.454-26.377a2.418,2.418,0,0,0-3.525-1.434,91.576,91.576,0,0,0-16.826,13.538,42.009,42.009,0,0,0-3.483,4.146,12.147,12.147,0,0,0-2.261,4.117c-.624,2.777,2.06,3.923,4.012,5.038l6.767,3.863-.485-3.77c-2.448,2.3-4.883,4.606-7.232,7-2.3,2.352-5.2,4.83-3.673,8.436,1.208,2.857,2.836,5.594,4.275,8.342q2.257,4.311,4.558,8.6c6.1,11.39,12.387,22.679,18.763,33.918q5.373,9.471,10.822,18.9c1.544,2.675,5.693.261,4.145-2.422Z"/>
<path class="d" d="M4.805,324.857c1.052-14.355,2.061-28.714,3.11-43.069.642-8.785,1.316-17.567,2.139-26.337,1.136-12.1,2.446-24.1,5.518-35.892,1.709-6.562,3.717-13.249,6.97-19.232,3.137-5.769,8.028-10.375,13.356-14.122,11.046-7.768,23.842-12.931,36.349-17.843l1.588-.624a2.471,2.471,0,0,0,1.676-2.952,2.417,2.417,0,0,0-2.952-1.677c-11.729,4.607-23.571,9.322-34.371,15.879-6.373,3.869-12.364,8.5-16.9,14.466-4.019,5.286-6.394,11.717-8.38,17.993C8.779,224.49,6.969,237.91,5.636,251.472c-.852,8.676-1.559,17.365-2.207,26.059-1,13.383-1.927,26.772-2.9,40.156q-.261,3.585-.524,7.17a2.421,2.421,0,0,0,2.4,2.4,2.446,2.446,0,0,0,2.4-2.4Z"/>
<path class="d" d="M188.781,324.858q.1-17.668.3-35.335.228-23.051.532-46.1c.091-6.6.187-13.2.322-19.8.064-3.09-4.736-3.09-4.8,0-.269,13.162-.417,26.327-.57,39.491q-.263,22.467-.455,44.934-.072,8.4-.126,16.807c-.016,3.089,4.784,3.093,4.8,0Z"/>
<path class="d" d="M109.593,191.007c5.128,0,10.256-.108,15.384-.11a2.4,2.4,0,0,0,0-4.8c-5.128,0-10.256.108-15.384.11a2.4,2.4,0,0,0,0,4.8Z"/>
<path class="d" d="M104.3,179.643c.486,2.039.807,4.108,1.239,6.159a20.207,20.207,0,0,1,.89,4.9c-.064,1.447-.338,2.91-.515,4.345-.887,7.181-1.793,14.36-2.672,21.542q-.93,7.593-1.821,15.188a2.414,2.414,0,0,0,2.4,2.4,2.457,2.457,0,0,0,2.4-2.4q1.53-13.109,3.182-26.2c.609-4.89,1.5-9.833,1.815-14.753a18.986,18.986,0,0,0-.83-5.272c-.535-2.385-.892-4.8-1.46-7.18-.716-3-5.346-1.732-4.628,1.276Z"/>
<path class="d" d="M133.407,230.916Q131.6,218.2,129.8,205.49q-.672-4.766-1.325-9.534c-.023-.163-.107-.789-.093-.686l-.08-.6q-.093-.693-.181-1.388c-.08-.627-.178-1.258-.225-1.888a11.7,11.7,0,0,1,.587-3.948,45.634,45.634,0,0,1,1.962-6.638,2.474,2.474,0,0,0-.861-3.284,2.42,2.42,0,0,0-3.284.861,49.57,49.57,0,0,0-2,6.278,20.553,20.553,0,0,0-1.234,6.355,38.526,38.526,0,0,0,.478,3.988c.95,7.137,1.976,14.265,2.988,21.394q1.122,7.9,2.246,15.8a2.415,2.415,0,0,0,2.952,1.677,2.464,2.464,0,0,0,1.676-2.953Z"/>
<path class="d" d="M137.717,268.78c12.843-22.261,25.54-44.629,37.294-67.489.886-1.724,1.938-3.445,1.467-5.462-.4-1.725-1.835-2.985-3.013-4.213-2.655-2.77-5.437-5.413-8.234-8.037l-.486,3.77,6.768-3.863c1.952-1.115,4.635-2.261,4.012-5.038a12.19,12.19,0,0,0-2.261-4.117,42.147,42.147,0,0,0-3.483-4.146,91.643,91.643,0,0,0-16.826-13.538,2.419,2.419,0,0,0-3.526,1.434q-5.315,23.565-12.106,46.764c-4,13.715-8.3,27.373-13.026,40.857-2.419,6.908-5.1,13.719-7.848,20.5a2.417,2.417,0,0,0,1.677,2.953,2.459,2.459,0,0,0,2.952-1.677c4.752-11.734,8.973-23.6,12.892-35.632,4.965-15.248,9.551-30.605,13.634-46.114q3.457-13.13,6.454-26.377l-3.526,1.435a97.338,97.338,0,0,1,11.5,8.639,61.174,61.174,0,0,1,5.413,5.292,27.041,27.041,0,0,1,2.031,2.526c.277.4.543.8.791,1.22.141.236.277.475.406.718l.123.236q.233.474,0-.007l.328-1.211q.557-.363.2-.146-.27.165-.547.316c-.422.243-.846.483-1.269.724l-2.326,1.328-4.865,2.777a2.421,2.421,0,0,0-.485,3.769c2.33,2.186,4.65,4.385,6.894,6.66q.843.855,1.671,1.723c.374.394,1.109.9,1.305,1.4.256.652-.959,2.348-1.359,3.123q-4.184,8.109-8.519,16.138-8.805,16.345-18.015,32.467-5.088,8.958-10.242,17.878c-1.546,2.68,2.6,5.1,4.145,2.422Z"/>
<path class="d" d="M139.83,151.229c1.316,1.484,2.559,3.029,3.8,4.575,1.152,1.433,2.435,2.812,3.518,4.295a5.7,5.7,0,0,1,.938,2.056,3.96,3.96,0,0,1,.119.81c0,.159-.141,1.021.044.547a9.923,9.923,0,0,1-.838,1.441,105.809,105.809,0,0,1-8.853,12.562c-1.039,1.253-2.118,2.476-3.272,3.624-.5.494-1.009.975-1.542,1.431a7.645,7.645,0,0,1-1.256.94l3.284.861c-4.817-6.431-9.352-13.156-14.681-19.183l-.485,3.769c2.8-2,5.458-4.217,8.162-6.338q5.734-4.5,11.454-9.013c1-.791,2.009-1.575,3-2.377a2.415,2.415,0,0,0,0-3.394,2.457,2.457,0,0,0-3.394,0c-6.2,5-12.5,9.878-18.78,14.773l-1.153.9-.5.39c-.313.243.392-.3-.067.052-.379.291-.754.588-1.143.865a2.447,2.447,0,0,0-.486,3.77c5.059,5.722,9.357,12.107,13.93,18.212a2.448,2.448,0,0,0,3.284.861c5.166-3.378,9-8.955,12.478-13.934,1.449-2.074,2.851-4.184,4.166-6.345a13.836,13.836,0,0,0,.985-1.779,8.237,8.237,0,0,0-.41-6.351c-.932-2.15-2.709-3.858-4.164-5.665-1.558-1.933-3.094-3.887-4.742-5.746C141.171,145.519,137.786,148.924,139.83,151.229Z"/>
<path class="d" d="M92.1,147.835c-1.458,1.645-2.828,3.365-4.2,5.079-1.3,1.62-2.813,3.171-3.958,4.905a8.467,8.467,0,0,0-.516,8.978,110.372,110.372,0,0,0,9.754,13.872,33.443,33.443,0,0,0,7.238,6.986,2.459,2.459,0,0,0,3.284-.861c4.573-6.105,8.872-12.49,13.93-18.212a2.446,2.446,0,0,0-.486-3.77c-.3-.218-.6-.45-.9-.679l-.346-.266c-.3-.228.41.318-.024-.019-.332-.258-.665-.515-1-.774q-2.616-2.036-5.223-4.084-5.62-4.41-11.228-8.836c-.977-.772-1.96-1.537-2.929-2.319a2.473,2.473,0,0,0-3.394,0,2.418,2.418,0,0,0,0,3.394c6.273,5.061,12.652,10,19.01,14.952,1.2.931,2.376,1.894,3.609,2.776l-.486-3.769c-5.328,6.027-9.863,12.752-14.681,19.183l3.284-.861c-.212-.139-.421-.283-.627-.43s-.011,0,.027.029c-.126-.1-.25-.2-.373-.3-.494-.41-.971-.842-1.434-1.287-1.008-.97-1.954-2-2.867-3.064-1.865-2.167-3.58-4.455-5.225-6.792-1.406-2-2.765-4.034-4.053-6.11-.363-.585-.723-1.173-1.061-1.773a2.255,2.255,0,0,1-.132-.241c.108.266.032.048.031-.22a5.2,5.2,0,0,1,.361-1.99c.734-1.816,2.461-3.349,3.672-4.856,1.421-1.769,2.833-3.547,4.339-5.246C97.535,148.925,94.153,145.518,92.1,147.835Z"/>
<path class="d" d="M95.088,147.242v3.831a2.477,2.477,0,0,0,.7,1.7,2.4,2.4,0,0,0,3.394,0,2.5,2.5,0,0,0,.7-1.7v-3.831a2.473,2.473,0,0,0-.7-1.7,2.4,2.4,0,0,0-3.394,0,2.5,2.5,0,0,0-.7,1.7Z"/>
<path class="d" d="M135.776,147.009v3.957a2.477,2.477,0,0,0,.7,1.7,2.4,2.4,0,0,0,3.395,0,2.493,2.493,0,0,0,.7-1.7v-.22a2.474,2.474,0,0,0-.7-1.7,2.4,2.4,0,0,0-3.395,0,2.492,2.492,0,0,0-.7,1.7v.22h4.8v-3.957a2.479,2.479,0,0,0-.7-1.7,2.4,2.4,0,0,0-3.395,0,2.5,2.5,0,0,0-.7,1.7Z"/>
<path class="d" d="M235.317,324.857c-1.065-14.533-2.084-29.069-3.149-43.6-.651-8.891-1.338-17.779-2.18-26.654-1.205-12.707-2.628-25.321-5.971-37.68-1.826-6.751-4.013-13.666-7.508-19.762-3.532-6.16-8.907-11.052-14.661-15.1-11.35-7.982-24.551-13.243-37.4-18.289l-1.684-.662a2.418,2.418,0,0,0-2.952,1.677,2.456,2.456,0,0,0,1.676,2.952c11.349,4.457,22.774,9.05,33.225,15.4,5.914,3.59,11.711,7.905,15.794,13.574,3.74,5.191,5.9,11.424,7.739,17.494A157.2,157.2,0,0,1,223.3,237.08c.744,5.1,1.184,10.247,1.682,15.373.828,8.516,1.515,17.045,2.149,25.578.987,13.294,1.912,26.592,2.88,39.886q.252,3.471.506,6.94a2.459,2.459,0,0,0,2.4,2.4,2.419,2.419,0,0,0,2.4-2.4Z"/>
<path class="f" d="M158.6,194.411a5.148,5.148,0,0,0-5.25,5.217,5.063,5.063,0,0,0,5.25,5.316,5.01,5.01,0,0,0,5.25-5.316A5.143,5.143,0,0,0,158.6,194.411Z"/>
<path class="d" d="M158.6,192.011a7.673,7.673,0,0,0-7.316,5.357,7.829,7.829,0,0,0,2.512,8.36,8.12,8.12,0,0,0,8.806.595,7.782,7.782,0,0,0,3.509-8.1,7.6,7.6,0,0,0-7.511-6.213,2.4,2.4,0,1,0,0,4.8c.153,0,.3.014.457.018.53.013-.56-.13-.053-.009.233.055.464.1.692.176a1.383,1.383,0,0,0,.263.094l-.319-.135c.084.038.166.078.247.12.235.122.45.317.686.429-.5-.235-.269-.213-.075-.035.065.06.128.122.19.186a2.148,2.148,0,0,0,.266.295c-.352-.231-.252-.367-.1-.116.129.208.25.416.37.63.1.175.033.3-.077-.208.037.171.126.341.175.51.062.215.075.457.146.666-.185-.541-.035-.4-.033-.155,0,.117.011.234.011.351a5.091,5.091,0,0,0-.037.716c-.079-.5.064-.4,0-.093-.031.153-.068.305-.111.455-.03.105-.062.209-.1.313-.1.285-.269.3.048-.1-.123.155-.193.381-.3.551-.055.087-.122.169-.174.257-.154.26.416-.467.106-.148-.164.168-.381.333-.529.513.35-.425.318-.232.089-.081-.07.046-.14.09-.212.133-.109.064-.222.118-.333.179-.4.219.461-.142.161-.064-.234.061-.458.157-.695.212-.089.021-.179.035-.267.056q-.384.063.224-.026c-.095.011-.19.019-.285.026a6.531,6.531,0,0,1-.727.007,2.769,2.769,0,0,0-.423-.033c.044-.006.609.115.229.023-.24-.058-.478-.106-.713-.185-.1-.034-.2-.086-.307-.112.644.164.259.108.049-.006s-.385-.262-.586-.377c.5.285.325.267.193.138-.09-.088-.185-.17-.273-.26-.071-.074-.134-.165-.211-.234-.224-.2.348.516.105.136-.139-.218-.265-.436-.391-.662-.234-.421.185.555.035.091-.027-.085-.059-.168-.086-.253a5.474,5.474,0,0,0-.189-.8c.021.04.052.62.032.214-.007-.146-.021-.292-.024-.438q0-.18,0-.36c.01-.268.181-.6-.027.019.085-.252.1-.536.184-.793a3.027,3.027,0,0,0,.136-.38c-.04.243-.212.459-.018.09.123-.233.31-.441.424-.673-.252.511-.209.264-.037.077.09-.1.184-.192.281-.282.191-.177.425-.206-.076.034a3.861,3.861,0,0,0,.333-.229c.115-.072.233-.14.353-.2.082-.043.164-.083.247-.121l-.318.135a4.721,4.721,0,0,0,.813-.244l.143-.029c.258-.043.191-.035-.2.022a2.381,2.381,0,0,0,.608-.031,2.4,2.4,0,1,0,0-4.8Z"/>
</g>
</svg>